<svg width="23" height="20" viewBox="0 0 23 20" fill="none" xmlns="http://www.w3.org/2000/svg">
<path d="M16.1857 10.7782C16.1922 10.1244 16.3888 9.48303 16.7565 8.91617C17.1243 8.34932 17.6508 7.8761 18.2851 7.54222C17.8884 7.05236 17.3684 6.65111 16.7664 6.37027C16.1643 6.08943 15.4967 5.93671 14.8165 5.92422C13.3561 5.84332 11.8956 6.73322 11.1654 6.73322C10.4351 6.73322 9.3398 5.92422 8.0619 5.92422C7.27209 5.9506 6.50354 6.15831 5.83151 6.52703C5.15949 6.89574 4.60701 7.41282 4.2282 8.02762C2.4939 10.6164 3.7718 14.3378 5.41482 16.4412C6.14505 17.4929 7.14911 18.5446 8.33574 18.5446C9.52236 18.5446 9.97875 17.8974 11.4392 17.8974C12.8997 17.8974 13.2648 18.5446 14.5427 18.5446C15.8206 18.5446 16.6421 17.4929 17.4636 16.4412C18.0113 15.794 18.3764 14.985 18.7415 14.0951C17.9954 13.8254 17.3552 13.3671 16.9008 12.7773C16.4463 12.1876 16.1977 11.4923 16.1857 10.7782ZM11.0741 4.95342C11.9456 4.95342 12.7814 4.64658 13.3977 4.1004C14.0139 3.55421 14.3601 2.81343 14.3601 2.04102C13.4886 2.04102 12.6528 2.34786 12.0366 2.89404C11.4203 3.44022 11.0741 4.181 11.0741 4.95342Z" fill="white"/>
</svg>
