<svg width="14" height="26" viewBox="0 0 14 26" fill="none" xmlns="http://www.w3.org/2000/svg">
<path d="M4.44678 7.05273L4.4458 7.03223C4.38472 6.29167 4.48337 5.5459 4.73486 4.84668C4.98635 4.1477 5.38421 3.51036 5.90283 2.97852C6.4216 2.44656 7.04905 2.03264 7.7417 1.76367C8.43436 1.49472 9.17662 1.37745 9.91846 1.41992L9.93311 1.4209H13.1919C13.1931 1.42141 13.1949 1.42289 13.1958 1.42383C13.1966 1.42469 13.1973 1.42569 13.1978 1.42676C13.1982 1.42796 13.1987 1.42938 13.1987 1.43066V5.25293C13.1987 5.25425 13.1983 5.25563 13.1978 5.25684C13.1973 5.25791 13.1966 5.2589 13.1958 5.25977C13.1949 5.26069 13.1931 5.26121 13.1919 5.26172C13.1907 5.26219 13.1893 5.2627 13.188 5.2627H11.0044C10.2123 5.26272 9.57838 5.4125 9.17432 5.87012C8.78356 6.31288 8.72314 6.92266 8.72314 7.50586V10.4102H13.0317C13.0329 10.4102 13.0345 10.4107 13.0356 10.4111C13.0369 10.4116 13.0386 10.4122 13.0396 10.4131C13.0405 10.414 13.041 10.4158 13.0415 10.417C13.0419 10.4181 13.0425 10.4197 13.0425 10.4209V14.5352C13.0425 14.5378 13.0414 14.5411 13.0396 14.543C13.0377 14.5448 13.0344 14.5459 13.0317 14.5459H8.72119V25.4102C8.72119 25.4114 8.72066 25.4129 8.72021 25.4141C8.71971 25.4153 8.71919 25.417 8.71826 25.418C8.71735 25.4189 8.71554 25.4194 8.71436 25.4199C8.71326 25.4203 8.71163 25.4209 8.71045 25.4209H4.4624C4.45978 25.4209 4.45646 25.4198 4.45459 25.418C4.45274 25.4161 4.45168 25.4128 4.45166 25.4102V14.5391H0.691895L0.685059 14.5361C0.683248 14.5343 0.682155 14.5319 0.682129 14.5293V10.4189C0.68216 10.4177 0.682634 10.4162 0.683105 10.415C0.683599 10.414 0.684221 10.4129 0.685059 10.4121C0.685899 10.4113 0.686912 10.4106 0.687988 10.4102C0.689131 10.4097 0.690663 10.4092 0.691895 10.4092H4.44678V7.05273Z" fill="#B0B0BA" stroke="#B0B0BA"/>
</svg>
