<svg width="27" height="27" viewBox="0 0 27 27" fill="none" xmlns="http://www.w3.org/2000/svg">
<path d="M13.6815 7.00707C12.4137 7.00707 11.1744 7.38301 10.1203 8.08735C9.06619 8.79169 8.2446 9.7928 7.75945 10.9641C7.27429 12.1353 7.14735 13.4242 7.39468 14.6676C7.64201 15.911 8.2525 17.0532 9.14896 17.9496C10.0454 18.8461 11.1876 19.4566 12.431 19.7039C13.6744 19.9512 14.9632 19.8243 16.1345 19.3391C17.3058 18.854 18.3069 18.0324 19.0112 16.9783C19.7156 15.9242 20.0915 14.6848 20.0915 13.4171C20.0928 12.5749 19.9279 11.7408 19.6063 10.9625C19.2846 10.1842 18.8125 9.47707 18.217 8.88158C17.6215 8.28609 16.9144 7.81399 16.1361 7.49232C15.3578 7.17065 14.5237 7.00575 13.6815 7.00707ZM13.6815 17.5833C12.8573 17.5833 12.0515 17.3389 11.3662 16.881C10.6808 16.423 10.1467 15.7722 9.83125 15.0107C9.51582 14.2491 9.43329 13.4112 9.59409 12.6028C9.75489 11.7944 10.1518 11.0518 10.7346 10.469C11.3175 9.88612 12.0601 9.4892 12.8685 9.3284C13.6769 9.16759 14.5148 9.25012 15.2763 9.56555C16.0379 9.88098 16.6887 10.4151 17.1467 11.1005C17.6046 11.7858 17.849 12.5916 17.849 13.4158C17.847 14.5205 17.4073 15.5794 16.6262 16.3605C15.8451 17.1416 14.7862 17.5813 13.6815 17.5833ZM21.849 6.74457C21.849 7.04124 21.761 7.33125 21.5962 7.57793C21.4314 7.8246 21.1971 8.01686 20.923 8.13039C20.649 8.24392 20.3473 8.27363 20.0564 8.21575C19.7654 8.15787 19.4981 8.01501 19.2884 7.80523C19.0786 7.59545 18.9357 7.32818 18.8778 7.03721C18.82 6.74624 18.8497 6.44464 18.9632 6.17055C19.0767 5.89646 19.269 5.66219 19.5157 5.49737C19.7623 5.33254 20.0523 5.24457 20.349 5.24457C20.546 5.24341 20.7413 5.2813 20.9235 5.35604C21.1058 5.43077 21.2715 5.54088 21.4109 5.68001C21.5504 5.81913 21.6609 5.9845 21.7361 6.16658C21.8113 6.34866 21.8497 6.54383 21.849 6.74082V6.74457ZM26.099 8.26207C26.1402 6.31824 25.4145 4.43633 24.079 3.02332C22.6616 1.69276 20.7802 0.96916 18.8365 1.00707C16.7728 0.88957 10.5865 0.88957 8.52151 1.00707C6.57926 0.96827 4.69894 1.69106 3.28276 3.02082C1.9528 4.43578 1.23031 6.3156 1.27026 8.25707C1.14526 10.3171 1.14526 16.5071 1.27026 18.5683C1.22912 20.5122 1.95476 22.3941 3.29026 23.8071C4.70462 25.1347 6.5807 25.8589 8.52026 25.8258C10.584 25.9433 16.7703 25.9433 18.8353 25.8258C20.7791 25.867 22.661 25.1413 24.074 23.8058C25.405 22.39 26.1299 20.51 26.094 18.5671C26.2115 16.5071 26.2115 10.3233 26.094 8.25707L26.099 8.26207ZM23.4278 20.7821C23.2156 21.3195 22.8953 21.8076 22.4868 22.2161C22.0783 22.6247 21.5902 22.9449 21.0528 23.1571C19.4065 23.8096 15.5028 23.6571 13.6778 23.6571C11.8528 23.6571 7.94901 23.8021 6.30276 23.1571C5.76536 22.9449 5.27726 22.6247 4.86872 22.2161C4.46018 21.8076 4.13991 21.3195 3.92776 20.7821C3.27526 19.1358 3.42776 15.2321 3.42776 13.4071C3.42776 11.5821 3.28276 7.67832 3.92776 6.03207C4.13991 5.49466 4.46018 5.00656 4.86872 4.59802C5.27726 4.18948 5.76536 3.86922 6.30276 3.65707C7.94901 3.00457 11.8528 3.15707 13.6778 3.15707C15.5028 3.15707 19.4065 3.01207 21.0528 3.65707C21.5902 3.86922 22.0783 4.18948 22.4868 4.59802C22.8953 5.00656 23.2156 5.49466 23.4278 6.03207C24.0803 7.67832 23.9278 11.5821 23.9278 13.4071C23.9278 15.2321 24.0803 19.1421 23.4278 20.7821Z" fill="#B0B0BA" stroke="#B0B0BA" stroke-width="0.5"/>
</svg>
