<svg width="23" height="22" viewBox="0 0 23 22" fill="none" xmlns="http://www.w3.org/2000/svg">
<path d="M5.32745 7.1875H0.637451V21.2948H5.32745V7.1875Z" fill="#B0B0BA"/>
<path d="M3.01701 0.384766C1.41243 0.384766 0.364014 1.43969 0.364014 2.82235C0.364014 4.17598 1.38054 5.25999 2.95494 5.25999H2.98524C4.62056 5.25999 5.63846 4.17598 5.63846 2.82235C5.60811 1.43969 4.62067 0.384766 3.01701 0.384766Z" fill="#B0B0BA"/>
<path d="M16.8413 6.85547C14.3536 6.85547 13.2393 8.22359 12.6153 9.18455V7.1872H7.92651C7.98869 8.51048 7.92651 21.2944 7.92651 21.2944H12.6153V13.4159C12.6153 12.9942 12.6456 12.5727 12.7699 12.2713C13.1083 11.4291 13.8803 10.5567 15.1757 10.5567C16.8717 10.5567 17.5511 11.8508 17.5511 13.7465V21.2944H22.2401V13.2045C22.2401 8.87125 19.9265 6.85547 16.8413 6.85547Z" fill="#B0B0BA"/>
</svg>
