<svg width="88" height="20" viewBox="0 0 88 20" fill="none" xmlns="http://www.w3.org/2000/svg">
<path d="M19.7264 17.3683C19.514 17.5295 19.2519 17.7226 18.94 17.9476C18.6609 18.1529 18.3637 18.3325 18.0521 18.4841C17.667 18.6587 17.2632 18.7889 16.8487 18.8723C16.3981 18.9598 15.9399 19.0018 15.481 18.9978C14.4004 19.0298 13.3494 18.642 12.5486 17.9158C12.1628 17.5677 11.8573 17.14 11.6533 16.6622C11.4493 16.1844 11.3516 15.6679 11.367 15.1486C11.3322 14.3713 11.541 13.6025 11.9643 12.9497C12.3992 12.3531 12.9897 11.8876 13.6714 11.6039C14.5368 11.241 15.4506 11.0063 16.3838 10.9072C17.4642 10.7685 18.5837 10.6666 19.7423 10.6016V10.5349C19.7658 10.2431 19.6984 9.95117 19.5494 9.69918C19.4004 9.44719 19.1771 9.24746 18.9101 9.1274C18.1298 8.82767 17.2953 8.69508 16.4605 8.7382C15.7557 8.74644 15.0563 8.86156 14.3861 9.07962C13.6505 9.30956 13.1209 9.48674 12.7994 9.61017H12.4411V6.64787C12.8571 6.53838 13.536 6.40898 14.4707 6.26066C15.4016 6.11111 16.3429 6.03588 17.2857 6.0357C18.968 5.90474 20.6524 6.26249 22.1362 7.06594C22.6411 7.43469 23.0433 7.9264 23.3046 8.49434C23.5659 9.06229 23.6777 9.68762 23.6293 10.3109V18.6723H19.7264V17.3683ZM19.7264 15.4571V12.9049C19.1955 12.9494 18.6192 13.0098 17.9974 13.0861C17.5212 13.1335 17.0502 13.2231 16.5899 13.3539C16.2453 13.4471 15.9331 13.6338 15.6881 13.8934C15.4705 14.1536 15.3589 14.4862 15.3755 14.8251C15.3703 15.0347 15.3924 15.2442 15.4412 15.4482C15.5021 15.6304 15.6166 15.79 15.7697 15.906C15.9438 16.054 16.1474 16.1633 16.3669 16.2266C16.7258 16.3082 17.0941 16.3417 17.4618 16.3261C17.8716 16.322 18.2768 16.2406 18.6563 16.0862C19.0454 15.9374 19.4071 15.7248 19.7264 15.4571Z" fill="#BE1622"/>
<path d="M37.5728 18.6702H33.6211V17.3941C33.0433 17.8818 32.4042 18.2918 31.7199 18.6135C31.0739 18.8867 30.3776 19.0206 29.6764 19.0067C28.9842 19.0273 28.2973 18.881 27.6736 18.5803C27.0499 18.2795 26.5078 17.8331 26.0929 17.2787C25.1325 15.921 24.659 14.2787 24.7491 12.6182C24.7326 11.6741 24.8863 10.7346 25.203 9.84504C25.4796 9.08155 25.9003 8.37832 26.4423 7.77362C26.9434 7.22194 27.559 6.78642 28.246 6.49752C28.914 6.20334 29.6352 6.04888 30.3652 6.04362C30.976 6.02663 31.5857 6.10591 32.1718 6.27853C32.6672 6.44538 33.1511 6.6449 33.6201 6.87577V1.64795H37.5728V18.6702ZM33.6231 15.2859V9.25178C33.3431 9.13344 33.0501 9.04858 32.7501 8.99895C32.4714 8.94994 32.1891 8.9243 31.906 8.9223C31.4695 8.89074 31.0317 8.96212 30.6279 9.13068C30.224 9.29925 29.8653 9.5603 29.5808 9.89282C29.0239 10.6742 28.7507 11.6224 28.8064 12.5804C28.7323 13.4998 28.9504 14.4191 29.4295 15.2072C29.6723 15.4936 29.9806 15.7173 30.3281 15.8594C30.6757 16.0014 31.0523 16.0577 31.4263 16.0235C31.8125 16.0192 32.1954 15.952 32.56 15.8244C32.9384 15.6997 33.296 15.5192 33.6211 15.2889L33.6231 15.2859Z" fill="#BE1622"/>
<path d="M46.99 17.3684C46.779 17.5296 46.5165 17.7227 46.2027 17.9477C45.9243 18.1531 45.6278 18.3327 45.3168 18.4842C44.9315 18.6585 44.5278 18.7887 44.1133 18.8724C43.6628 18.9597 43.2046 19.0018 42.7456 18.9978C41.6653 19.0302 40.6144 18.6424 39.8142 17.9158C39.4284 17.5678 39.1229 17.1401 38.9189 16.6622C38.7149 16.1844 38.6172 15.6679 38.6327 15.1486C38.5978 14.3714 38.8066 13.6026 39.2299 12.9498C39.6646 12.3534 40.2548 11.8879 40.936 11.604C41.8019 11.2415 42.716 11.0067 43.6495 10.9072C44.7285 10.7685 45.848 10.6667 47.0079 10.6017V10.535C47.0314 10.2433 46.9641 9.95152 46.8153 9.69957C46.6665 9.44762 46.4435 9.2478 46.1768 9.12747C45.3961 8.8276 44.5612 8.695 43.7261 8.73827C43.0193 8.74804 42.3181 8.86552 41.6467 9.08666C40.9095 9.31693 40.3806 9.49378 40.0601 9.61721H39.7037V6.64794C40.1191 6.53778 40.7957 6.40871 41.7333 6.26073C42.6642 6.11121 43.6055 6.03599 44.5483 6.03577C46.231 5.90461 47.9157 6.26237 49.3999 7.06601C49.9047 7.43476 50.3069 7.92647 50.5682 8.49441C50.8296 9.06236 50.9413 9.68769 50.893 10.311V18.6723H46.99V17.3684ZM46.99 15.4572V12.905C46.4591 12.9495 45.8831 13.0098 45.262 13.0862C44.7858 13.1335 44.3148 13.2232 43.8545 13.3539C43.5092 13.4469 43.1964 13.6336 42.9507 13.8934C42.7345 14.1544 42.6234 14.4866 42.6391 14.8251C42.6342 15.0348 42.6566 15.2443 42.7058 15.4482C42.7653 15.6306 42.8792 15.7904 43.0323 15.9061C43.2067 16.0537 43.4102 16.1629 43.6296 16.2266C43.9886 16.3077 44.3567 16.3412 44.7245 16.3262C45.1342 16.3223 45.5395 16.2409 45.919 16.0863C46.3084 15.9375 46.6704 15.7249 46.99 15.4572Z" fill="#BE1622"/>
<path d="M61.2212 10.1407H60.8718C60.6084 10.0643 60.3367 10.0201 60.0626 10.0093C59.6873 9.97944 59.3827 9.96451 59.1349 9.96451C58.6382 9.96081 58.1421 9.99876 57.6517 10.078C57.1796 10.1631 56.7157 10.2887 56.2651 10.4533V18.6802H52.3164V6.38805H56.2651V8.19171C56.9314 7.57638 57.6949 7.07557 58.5247 6.70957C59.0869 6.48127 59.6859 6.35715 60.2925 6.34326C60.4319 6.34326 60.5911 6.34326 60.7613 6.35421C60.9316 6.36516 61.0898 6.37213 61.2202 6.38706L61.2212 10.1407Z" fill="#BE1622"/>
<path d="M69.7291 17.3681C69.5174 17.5294 69.2546 17.7225 68.9407 17.9474C68.6623 18.1527 68.3657 18.3323 68.0548 18.4839C67.6699 18.6581 67.2665 18.7883 66.8524 18.8721C66.4002 18.9596 65.9403 19.0016 65.4797 18.9976C64.3992 19.0297 63.3484 18.6415 62.5483 17.9146C62.1625 17.5666 61.857 17.1388 61.653 16.661C61.449 16.1832 61.3513 15.6667 61.3668 15.1474C61.3332 14.3694 61.5441 13.6005 61.97 12.9485C62.4052 12.3527 62.9952 11.8873 63.6761 11.6028C64.5416 11.2402 65.4554 11.0054 66.3885 10.906C67.4682 10.7673 68.5874 10.6654 69.746 10.6004V10.5337C69.7695 10.2419 69.7021 9.95 69.5531 9.698C69.4041 9.44601 69.1808 9.24628 68.9138 9.12623C68.1338 8.82663 67.2996 8.69404 66.4652 8.73703C65.7585 8.74605 65.0574 8.86251 64.3858 9.08243C63.6485 9.3127 63.12 9.48955 62.8001 9.61297H62.4388V6.64769C62.8542 6.53753 63.5307 6.40846 64.4684 6.26048C65.399 6.11099 66.3399 6.03576 67.2824 6.03552C68.9653 5.90497 70.65 6.26342 72.134 7.06775C72.6392 7.43617 73.0416 7.92782 73.303 8.49585C73.5643 9.06388 73.6759 9.68937 73.627 10.3127V18.6741H69.7281L69.7291 17.3681ZM69.7291 15.4569V12.9047C69.1982 12.9492 68.6219 13.0096 68.0001 13.0859C67.5239 13.1333 67.0529 13.2229 66.5926 13.3537C66.2477 13.4469 65.9352 13.6336 65.6898 13.8932C65.4726 14.1536 65.3614 14.4862 65.3782 14.8249C65.3726 15.0346 65.3947 15.2441 65.4439 15.448C65.5043 15.6305 65.6188 15.7902 65.7724 15.9059C65.9462 16.0543 66.1498 16.1636 66.3696 16.2264C66.7286 16.3079 67.0968 16.3413 67.4645 16.3259C67.8743 16.3219 68.2795 16.2405 68.659 16.086C69.0481 15.9371 69.4097 15.7245 69.7291 15.4569Z" fill="#BE1622"/>
<path d="M87.9877 12.3574C88.0612 14.0771 87.4905 15.7624 86.3871 17.0836C85.9002 17.6669 85.2889 18.1337 84.598 18.4498C83.9071 18.7659 83.1542 18.9232 82.3945 18.9101C81.7858 18.9194 81.1787 18.8457 80.5899 18.6911C80.0725 18.5456 79.5768 18.332 79.1157 18.0561L78.9505 18.6692H75.168V1.64795H79.1167V7.66512C79.6877 7.20608 80.3092 6.81368 80.9691 6.49553C81.6533 6.1854 82.398 6.03202 83.149 6.0466C83.8383 6.01099 84.5257 6.14554 85.1506 6.43839C85.7756 6.73125 86.3188 7.1734 86.7325 7.72584C87.6408 9.09329 88.0812 10.7184 87.9877 12.3574ZM83.9284 12.441C83.9795 11.5648 83.7873 10.6915 83.373 9.9177C83.1494 9.60702 82.8472 9.36136 82.4974 9.20587C82.1475 9.05038 81.7627 8.99065 81.3822 9.03279C80.9946 9.03529 80.6093 9.09225 80.2375 9.20201C79.843 9.31545 79.4646 9.47903 79.1117 9.68876V15.8493C79.3732 15.945 79.6437 16.0143 79.919 16.0563C80.223 16.0954 80.5293 16.1137 80.8358 16.1111C81.2676 16.1448 81.7014 16.0797 82.1043 15.9206C82.5072 15.7616 82.8686 15.5129 83.161 15.1933C83.728 14.3925 83.9992 13.4197 83.9284 12.441Z" fill="#BE1622"/>
<path d="M10.3968 18.6135C9.89878 18.7399 9.39352 18.836 8.88383 18.9012C8.23474 18.9777 7.58144 19.0129 6.92788 19.0067C5.56349 19.1109 4.20494 18.741 3.08167 17.9595C2.61861 17.4951 2.2653 16.933 2.0476 16.3143C1.8299 15.6956 1.75333 15.0361 1.82349 14.3841V7.92394H0.00390625V4.92182H1.82349V0.976074H6.26395V4.92581H10.3968V7.92792H6.26395V12.8322C6.26395 13.318 6.26793 13.741 6.2759 14.1014C6.27762 14.4342 6.34317 14.7637 6.469 15.0719C6.58611 15.3627 6.80031 15.604 7.0752 15.7547C7.46996 15.9464 7.90722 16.0338 8.34533 16.0085C8.65084 15.9959 8.95368 15.9461 9.24715 15.8602C9.51571 15.7986 9.77672 15.7078 10.0256 15.5895H10.3929L10.3968 18.6135Z" fill="#BE1622"/>
</svg>
