<svg width="23" height="20" viewBox="0 0 23 20" fill="none" xmlns="http://www.w3.org/2000/svg">
<path d="M3.86504 3.49632C3.86286 3.52325 3.86286 3.55029 3.86504 3.57722V16.9905C3.86286 17.0174 3.86286 17.0444 3.86504 17.0714C3.88505 17.001 3.92604 16.9368 3.9837 16.8853L10.784 10.2919L3.9837 3.68239C3.92459 3.62868 3.88351 3.56145 3.86504 3.48823V3.49632ZM4.43096 17.5568C4.56822 17.568 4.7059 17.5396 4.82346 17.4759L13.5862 13.0021L13.568 12.9859L11.4047 10.8825L4.65003 17.4354C4.59172 17.4937 4.51565 17.5358 4.43096 17.5568ZM14.353 12.6219L18.1684 10.6722C18.2463 10.6335 18.3112 10.5772 18.3564 10.5089C18.4015 10.4407 18.4253 10.363 18.4253 10.2838C18.4253 10.2047 18.4015 10.127 18.3564 10.0588C18.3112 9.9905 18.2463 9.93415 18.1684 9.89552L14.353 7.95392C14.3341 8.02052 14.2964 8.08177 14.2434 8.1319L12.0254 10.2838L14.2434 12.4358C14.2982 12.4924 14.3347 12.5571 14.353 12.6219ZM13.5953 7.5656L4.82346 3.07564C4.70379 3.01746 4.56624 2.99478 4.43096 3.01092C4.52224 3.03519 4.59527 3.07564 4.65916 3.13227L11.4047 9.68518L13.568 7.58178L13.5953 7.55751V7.5656Z" fill="white"/>
</svg>
