<svg width="29" height="28" viewBox="0 0 29 28" fill="none" xmlns="http://www.w3.org/2000/svg">
<path d="M28.1787 20.666C28.0537 20.666 28.0537 20.666 28.1787 20.666C27.8037 20.416 27.5537 20.416 27.3037 20.291H27.1787C25.9287 19.916 24.8037 19.041 23.9287 17.916C23.4287 17.291 23.0537 16.541 22.8037 15.916C22.6787 15.666 22.8037 15.541 22.6787 15.541C22.6787 15.541 22.6787 15.541 22.8037 15.416C23.0537 15.166 23.4287 14.916 23.8037 14.791C24.4287 14.541 25.0537 14.291 25.6787 13.791C25.8037 13.666 25.9287 13.541 26.0537 13.291C26.1787 12.916 26.1787 12.541 26.0537 12.166C25.5537 11.916 25.1787 11.666 25.0537 11.541C24.6787 11.291 24.0537 11.291 23.5537 11.416C23.4287 11.416 23.3037 11.541 23.1787 11.541C23.0537 11.541 22.9287 11.666 22.8037 11.666H22.6787C22.5537 11.666 22.4287 11.666 22.3037 11.666C22.3037 11.416 22.3037 11.166 22.3037 10.791C22.3037 10.541 22.3037 10.291 22.3037 10.041V9.91602C22.3037 8.91602 22.3037 7.91602 22.1787 7.04102V6.91602C21.8037 5.16602 20.6787 3.54102 19.0537 2.29102C17.9287 1.54102 16.6787 1.04102 15.3037 0.916016C14.9287 0.916016 14.5537 0.916016 14.1787 0.916016H13.9287C12.5537 0.916016 10.5537 1.16602 8.80368 2.54102C7.67868 3.41602 6.80368 4.54102 6.30368 5.79102C6.05368 7.29102 6.05368 8.66602 6.17868 9.79102V10.416C6.17868 10.916 6.17868 11.291 6.17868 11.666C6.05368 11.666 5.80368 11.666 5.67868 11.541C5.55368 11.541 5.42868 11.541 5.17868 11.541C5.05368 11.541 4.92868 11.416 4.92868 11.416H4.80368C4.30368 11.291 3.80368 11.416 3.55368 11.666C3.55368 11.666 3.55368 11.666 3.42868 11.666C2.92868 12.041 2.67868 12.416 2.67868 12.916C2.67868 12.916 2.67868 13.041 2.67868 13.166C2.67868 13.541 2.92868 13.791 3.17868 14.041C3.30368 14.166 3.42868 14.166 3.42868 14.291L3.55368 14.416C4.05368 14.791 4.67868 14.916 5.17868 15.166L5.55368 15.041C5.92868 15.166 6.05368 15.416 6.05368 15.416C6.17868 15.791 5.80368 16.291 5.80368 16.416C5.17868 17.666 4.30368 18.666 3.17868 19.416C2.55368 19.791 1.92868 20.041 1.30368 20.291H1.17868C0.928677 20.291 0.553677 20.416 0.178677 20.916C0.178677 20.916 0.0536768 21.041 0.0536768 21.166C-0.0713232 21.666 0.0536768 22.041 0.303677 22.291C0.428677 22.541 0.678677 22.666 0.803677 22.666C1.42868 23.041 2.17868 23.166 2.80368 23.416H2.92868C2.92868 23.416 2.92868 23.416 3.05368 23.416L3.42868 23.541C3.55368 23.541 3.80368 23.666 3.92868 23.666C3.92868 23.791 4.05368 24.041 4.05368 24.166C4.05368 24.416 4.17868 24.541 4.17868 24.791C4.05368 25.291 4.30368 25.541 4.67868 25.666C5.05368 25.791 5.30368 25.666 5.42868 25.666C6.42868 25.541 7.42868 25.416 8.17868 25.541C8.80368 25.666 9.42868 26.166 10.1787 26.541C10.4287 26.666 10.6787 26.791 10.9287 27.041C11.6787 27.541 12.4287 27.916 13.5537 27.916C13.8037 27.916 13.9287 27.916 14.1787 27.916C14.6787 27.916 15.1787 27.916 15.6787 27.791C16.3037 27.791 16.9287 27.541 17.4287 27.166C17.8037 26.916 18.1787 26.666 18.5537 26.416C19.1787 26.041 19.6787 25.666 20.3037 25.416C20.4287 25.416 20.6787 25.291 21.0537 25.291H21.3037C22.0537 25.291 22.9287 25.291 23.6787 25.416H23.9287C24.1787 25.416 24.4287 25.291 24.5537 25.041C24.6787 24.916 24.6787 24.791 24.8037 24.666L24.9287 24.291C25.0537 24.041 25.0537 23.666 25.1787 23.666H25.3037H25.4287C26.1787 23.541 26.8037 23.416 27.3037 23.166L27.5537 23.041H27.6787C27.9287 22.916 28.3037 22.791 28.6787 22.291C28.8037 22.041 28.9287 21.666 28.9287 21.416C28.5537 21.166 28.4287 20.916 28.1787 20.666Z" fill="#B0B0BA"/>
</svg>
