<svg width="20" height="20" viewBox="0 0 20 20" fill="none" xmlns="http://www.w3.org/2000/svg">
<g clip-path="url(#clip0_9491_341)">
<path d="M16.3783 11.0071C10.8198 9.93989 10.0605 9.18064 8.99396 3.62214C8.9775 3.53652 8.93172 3.4593 8.8645 3.40378C8.79727 3.34825 8.7128 3.31787 8.62561 3.31787C8.53842 3.31787 8.45395 3.34825 8.38673 3.40378C8.31951 3.4593 8.27373 3.53652 8.25727 3.62214C7.19067 9.18064 6.4314 9.93989 0.872622 11.0071C0.78702 11.0235 0.709808 11.0692 0.654274 11.1364C0.598741 11.2035 0.568359 11.288 0.568359 11.3751C0.568359 11.4623 0.598741 11.5467 0.654274 11.6139C0.709808 11.6811 0.78702 11.7268 0.872622 11.7432C6.43137 12.81 7.19067 13.5687 8.25727 19.1278C8.27381 19.2134 8.31962 19.2905 8.38683 19.346C8.45405 19.4014 8.53847 19.4318 8.62561 19.4318C8.71276 19.4318 8.79718 19.4014 8.86439 19.346C8.93161 19.2905 8.97742 19.2134 8.99396 19.1278C10.0605 13.5687 10.8198 12.8101 16.3783 11.7432C16.4639 11.7268 16.5411 11.6811 16.5966 11.6139C16.6522 11.5467 16.6826 11.4623 16.6826 11.3751C16.6826 11.288 16.6522 11.2035 16.5966 11.1364C16.5411 11.0692 16.4639 11.0235 16.3783 11.0071Z" fill="white"/>
<path d="M15.9646 6.91438C15.8774 6.91434 15.793 6.88395 15.7257 6.82843C15.6585 6.77291 15.6127 6.69572 15.5962 6.61012C15.2206 4.6515 15.006 4.43699 13.0474 4.06129C12.9618 4.04482 12.8846 3.99904 12.8291 3.93182C12.7735 3.8646 12.7432 3.78013 12.7432 3.69295C12.7432 3.60576 12.7735 3.52129 12.8291 3.45407C12.8846 3.38685 12.9618 3.34107 13.0474 3.3246C15.0063 2.94862 15.2206 2.73408 15.5962 0.775767C15.6127 0.690144 15.6585 0.61293 15.7257 0.557401C15.7929 0.501872 15.8774 0.471497 15.9646 0.471497C16.0518 0.471497 16.1362 0.501872 16.2035 0.557401C16.2707 0.61293 16.3165 0.690144 16.3329 0.775767C16.7086 2.73408 16.9228 2.94862 18.8818 3.3246C18.9674 3.34107 19.0446 3.38685 19.1001 3.45407C19.1556 3.52129 19.186 3.60576 19.186 3.69295C19.186 3.78013 19.1556 3.8646 19.1001 3.93182C19.0446 3.99904 18.9674 4.04482 18.8818 4.06129C16.9231 4.43696 16.7086 4.6515 16.3329 6.61012C16.3164 6.69572 16.2706 6.77291 16.2034 6.82843C16.1362 6.88395 16.0518 6.91434 15.9646 6.91438Z" fill="white"/>
</g>
<defs>
<clipPath id="clip0_9491_341">
<rect width="20" height="20" fill="white"/>
</clipPath>
</defs>
</svg>
