<svg width="23" height="26" viewBox="0 0 23 26" fill="none" xmlns="http://www.w3.org/2000/svg">
<path d="M22.178 11.1655C20.0283 11.1707 17.9314 10.5003 16.1834 9.24902V17.9756C16.1828 19.5918 15.6887 21.1694 14.7674 22.4973C13.846 23.8252 12.5412 24.8402 11.0274 25.4065C9.5136 25.9728 7.86299 26.0635 6.29628 25.6664C4.72957 25.2693 3.32143 24.4033 2.26015 23.1843C1.19886 21.9653 0.535031 20.4514 0.357408 18.8449C0.179786 17.2385 0.49684 15.6161 1.26618 14.1947C2.03552 12.7732 3.22046 11.6206 4.66258 10.8908C6.1047 10.161 7.73524 9.88891 9.33619 10.1108V14.5C8.60359 14.2696 7.81692 14.2765 7.0885 14.5198C6.36009 14.7632 5.72718 15.2304 5.28018 15.8549C4.83317 16.4794 4.59491 17.2292 4.59943 17.9971C4.60396 18.7651 4.85103 19.512 5.30536 20.1312C5.7597 20.7503 6.39806 21.2101 7.12929 21.4449C7.86052 21.6796 8.64722 21.6773 9.37705 21.4382C10.1069 21.1992 10.7425 20.7356 11.1932 20.1138C11.6438 19.4919 11.8865 18.7436 11.8865 17.9756V0.916016H16.1834C16.1804 1.27888 16.2108 1.64124 16.2742 1.99854C16.4235 2.79613 16.7339 3.55489 17.1866 4.22839C17.6392 4.90188 18.2244 5.47597 18.9065 5.91553C19.8769 6.55717 21.0146 6.89917 22.178 6.89893V11.1655Z" fill="#B0B0BA"/>
</svg>
