<svg width="24" height="24" viewBox="0 0 24 24" fill="none" xmlns="http://www.w3.org/2000/svg">
<g clip-path="url(#clip0_6162_2993)">
<path d="M17.507 14.3072L17.498 14.3822C15.299 13.2862 15.069 13.1402 14.785 13.5662C14.588 13.8612 14.014 14.5302 13.841 14.7282C13.666 14.9232 13.492 14.9382 13.195 14.8032C12.895 14.6532 11.932 14.3382 10.792 13.3182C9.90402 12.5232 9.30802 11.5482 9.13202 11.2482C8.83902 10.7422 9.45202 10.6702 10.01 9.61417C10.11 9.40417 10.059 9.23917 9.98502 9.09017C9.91002 8.94017 9.31302 7.47017 9.06302 6.88417C8.82302 6.30017 8.57602 6.37417 8.39102 6.37417C7.81502 6.32417 7.39402 6.33217 7.02302 6.71817C5.40902 8.49217 5.81602 10.3222 7.19702 12.2682C9.91102 15.8202 11.357 16.4742 14.001 17.3822C14.715 17.6092 15.366 17.5772 15.881 17.5032C16.455 17.4122 17.648 16.7822 17.897 16.0772C18.152 15.3722 18.152 14.7872 18.077 14.6522C18.003 14.5172 17.807 14.4422 17.507 14.3072Z" fill="white"/>
<path d="M20.52 3.44797C12.831 -3.98503 0.106 1.40597 0.101 11.892C0.101 13.988 0.65 16.032 1.696 17.837L0 23.999L6.335 22.347C14.24 26.617 23.996 20.947 24 11.898C24 8.72197 22.76 5.73297 20.505 3.48697L20.52 3.44797ZM22.002 11.865C21.996 19.498 13.617 24.265 6.99 20.369L6.63 20.155L2.88 21.13L3.885 17.485L3.646 17.11C-0.478 10.545 4.26 1.96497 12.072 1.96497C14.726 1.96497 17.217 2.99997 19.093 4.87497C20.968 6.73397 22.002 9.22497 22.002 11.865Z" fill="white"/>
</g>
<defs>
<clipPath id="clip0_6162_2993">
<rect width="24" height="24" fill="white"/>
</clipPath>
</defs>
</svg>
    