<svg width="28" height="20" viewBox="0 0 28 20" fill="none" xmlns="http://www.w3.org/2000/svg">
<path d="M27.2148 3.90465C26.9047 2.73752 25.9914 1.81824 24.8317 1.50623C22.7299 0.939453 14.3015 0.939453 14.3015 0.939453C14.3015 0.939453 5.87304 0.939453 3.77104 1.50629C2.61142 1.8183 1.69812 2.73752 1.38815 3.90471C0.824951 6.02023 0.824951 10.4343 0.824951 10.4343C0.824951 10.4343 0.824951 14.8484 1.38815 16.9638C1.69812 18.131 2.61142 19.012 3.77104 19.3241C5.87304 19.8908 14.3015 19.8908 14.3015 19.8908C14.3015 19.8908 22.7299 19.8908 24.8317 19.324C25.9914 19.0119 26.9047 18.131 27.2148 16.9638C27.778 14.8483 27.778 10.4342 27.778 10.4342C27.778 10.4342 27.778 6.02023 27.2148 3.90465Z" fill="#B0B0BA"/>
</svg>
